<svg width="5" height="7" viewBox="0 0 5 7" fill="none" xmlns="http://www.w3.org/2000/svg">
<path d="M4.44451 3.22686L1.32942 0.111828C1.25737 0.0397233 1.16119 0 1.05864 0C0.956087 0 0.859909 0.0397233 0.787861 0.111828L0.558456 0.341176C0.409181 0.490622 0.409181 0.733514 0.558456 0.882733L3.17427 3.49855L0.555554 6.11727C0.483506 6.18937 0.443726 6.28549 0.443726 6.38799C0.443726 6.4906 0.483506 6.58672 0.555554 6.65888L0.784959 6.88817C0.857064 6.96028 0.953185 7 1.05574 7C1.15829 7 1.25447 6.96028 1.32652 6.88817L4.44451 3.77029C4.51673 3.69796 4.55639 3.60139 4.55616 3.49872C4.55639 3.39566 4.51673 3.29914 4.44451 3.22686Z" fill="#4C858B"/>
</svg>
