<svg width="12" height="17" viewBox="0 0 12 17" fill="none" xmlns="http://www.w3.org/2000/svg">
<path d="M6.35585 0.522949C3.30122 0.522949 0.81604 3.00812 0.81604 6.06275C0.81604 9.90208 6.3613 16.4604 6.3613 16.4604C6.3613 16.4604 11.8957 9.71327 11.8957 6.06275C11.8957 3.00812 9.41058 0.522949 6.35585 0.522949ZM8.02733 7.6848C7.56644 8.14559 6.9612 8.37604 6.35585 8.37604C5.75061 8.37604 5.14517 8.14559 4.68447 7.6848C3.76279 6.76322 3.76279 5.26363 4.68447 4.34196C5.13077 3.89547 5.72444 3.64955 6.35585 3.64955C6.98727 3.64955 7.58084 3.89556 8.02733 4.34196C8.94901 5.26363 8.94901 6.76322 8.02733 7.6848Z" fill="#4C858B"/>
</svg>
